<?xml version="1.0" standalone="no"?>
<!DOCTYPE svg PUBLIC "-//W3C//DTD SVG 20010904//EN"
 "http://www.w3.org/TR/2001/REC-SVG-20010904/DTD/svg10.dtd">
<svg version="1.0" xmlns="http://www.w3.org/2000/svg"
 width="1320.000000pt" height="1320.000000pt" viewBox="0 0 1320.000000 1320.000000"
 preserveAspectRatio="xMidYMid meet">
<metadata>
Created by potrace 1.14, written by Peter Selinger 2001-2017
</metadata>
<g transform="translate(0.000000,1320.000000) scale(0.100000,-0.100000)"
fill="#000000" stroke="none">
<path d="M6270 12606 c-3 -3 -41 -7 -85 -11 -44 -3 -96 -8 -115 -10 -19 -2
-60 -7 -90 -10 -30 -3 -62 -8 -70 -10 -8 -2 -39 -7 -69 -10 -58 -7 -67 -9
-150 -26 -30 -6 -64 -12 -75 -14 -127 -18 -469 -112 -661 -183 -55 -20 -102
-37 -105 -38 -8 -1 -33 -12 -175 -71 -120 -51 -311 -143 -395 -190 -116 -66
-147 -81 -160 -78 -8 2 -24 6 -35 9 -19 4 -104 24 -135 31 -19 5 -219 46 -245
51 -98 19 -249 44 -290 49 -27 4 -57 8 -65 10 -8 3 -40 7 -70 10 -30 3 -66 8
-80 10 -14 2 -61 7 -104 10 -44 4 -87 8 -97 10 -39 8 -315 17 -479 17 -404 -1
-525 -36 -698 -206 -102 -99 -144 -168 -161 -266 -15 -86 -6 -440 13 -540 65
-325 204 -762 336 -1055 10 -22 29 -67 43 -100 14 -33 55 -123 91 -199 l67
-139 -25 -76 c-52 -157 -117 -424 -132 -536 -3 -27 -8 -53 -10 -56 -2 -3 -6
-33 -9 -65 -4 -32 -8 -69 -10 -82 -20 -120 -29 -765 -13 -952 9 -110 41 -338
53 -380 2 -8 7 -28 10 -45 21 -124 80 -336 140 -505 54 -152 176 -426 235
-530 29 -51 153 -262 174 -295 l25 -41 -22 0 c-113 -2 -293 -46 -424 -105
-164 -73 -266 -151 -463 -348 -279 -281 -439 -549 -586 -985 -39 -116 -119
-411 -129 -476 -2 -14 -12 -61 -21 -105 -11 -48 -19 -136 -21 -221 l-4 -140
60 -57 60 -57 106 0 c110 0 146 9 377 99 27 10 27 9 102 -127 55 -100 89 -151
129 -189 l54 -51 112 -1 112 0 70 45 70 44 14 -32 c80 -188 98 -218 172 -279
30 -25 38 -27 135 -27 57 0 131 6 165 13 l63 13 11 -42 c86 -317 230 -623 416
-889 31 -43 54 -80 52 -82 -2 -2 -29 -6 -59 -9 -170 -17 -513 -100 -645 -155
-172 -72 -269 -126 -336 -187 -146 -135 -210 -215 -231 -289 -22 -76 -17 -307
7 -360 10 -22 64 -85 119 -140 83 -83 117 -109 191 -146 119 -61 291 -118 425
-142 14 -3 63 -12 110 -20 47 -9 110 -19 140 -22 30 -4 69 -8 85 -10 237 -28
474 -39 885 -39 309 -1 657 9 710 19 10 2 52 6 92 9 74 6 134 13 198 22 19 3
55 7 80 10 25 3 101 16 170 30 l125 26 106 -26 c59 -15 115 -28 125 -30 11 -3
64 -13 119 -25 117 -24 143 -28 210 -36 28 -3 61 -8 75 -10 28 -5 70 -10 175
-22 39 -4 273 -8 520 -8 394 0 523 4 625 20 14 2 48 7 75 10 28 3 57 7 65 10
8 2 37 6 63 10 26 3 71 10 100 16 29 6 63 12 77 15 14 2 89 20 168 40 142 35
142 35 215 20 74 -15 150 -28 307 -51 74 -11 92 -13 160 -20 36 -4 76 -8 90
-10 14 -3 68 -7 120 -10 52 -3 124 -8 160 -10 90 -6 704 -6 820 -1 108 6 252
15 325 22 28 3 73 7 100 9 440 40 778 128 955 248 77 53 220 206 247 265 22
48 24 66 24 200 0 157 -8 193 -57 257 l-24 32 92 1 c51 1 106 7 123 14 71 28
193 124 335 263 130 126 155 158 194 240 27 58 30 301 5 360 -26 57 -218 247
-314 310 -83 54 -195 113 -230 122 -39 10 -280 12 -310 3 -31 -10 -143 -118
-164 -157 -18 -35 -25 -98 -26 -219 l0 -111 -44 14 c-25 7 -46 14 -47 16 -2 2
4 25 13 52 12 39 16 95 17 255 1 232 0 234 -82 322 l-45 49 35 37 c33 35 47
60 98 180 12 28 24 52 26 52 1 0 31 -18 66 -39 l63 -39 113 0 113 0 58 57 c68
67 86 92 139 196 68 133 47 126 208 68 135 -50 142 -51 252 -53 l113 -1 70 70
69 69 0 124 c0 75 -6 152 -16 198 -9 41 -18 89 -21 105 -2 17 -16 77 -30 135
-13 58 -26 112 -28 120 -59 270 -208 641 -347 864 -115 183 -300 388 -495 547
-79 64 -223 146 -333 189 -78 31 -250 70 -317 73 -18 1 -17 3 15 50 93 137
227 379 292 527 23 52 50 113 60 135 67 150 192 552 215 690 2 11 10 58 18
105 9 47 19 105 22 130 3 25 8 56 10 70 32 217 37 764 10 1005 -19 167 -60
414 -86 509 -6 23 -13 48 -15 56 -14 65 -37 148 -44 165 -5 11 -18 48 -29 83
l-20 63 46 97 c103 218 148 320 220 502 138 347 257 756 287 990 10 75 7 391
-4 448 -19 100 -62 172 -157 261 -106 101 -167 130 -338 163 -115 22 -745 17
-923 -7 -19 -2 -59 -7 -90 -10 -31 -3 -70 -7 -87 -10 -16 -2 -48 -7 -70 -10
-33 -5 -131 -21 -300 -50 -16 -3 -41 -8 -55 -10 -14 -3 -38 -8 -55 -11 -16 -3
-46 -9 -65 -14 -19 -5 -46 -11 -60 -14 -59 -11 -178 -37 -208 -45 -31 -9 -43
-5 -150 56 -274 156 -614 299 -937 396 -190 57 -479 123 -620 142 -22 2 -73 9
-114 15 -40 6 -99 13 -130 16 -31 3 -74 8 -96 11 -50 7 -889 16 -895 9z m4135
-10542 c28 -13 41 -23 30 -20 -11 3 -36 8 -55 11 -19 3 -44 8 -55 10 -11 2
-24 4 -30 5 -10 2 31 17 50 19 6 0 33 -11 60 -25z m555 -180 c27 -4 50 -9 50
-13 0 -3 3 -17 7 -31 5 -21 4 -23 -8 -14 -8 7 -41 26 -74 44 -33 17 -52 29
-43 26 10 -3 40 -8 68 -12z"/>
</g>
</svg>
